<?xml version="1.0"?>
<svg xmlns="http://www.w3.org/2000/svg" xmlns:xlink="http://www.w3.org/1999/xlink" xmlns:svgjs="http://svgjs.com/svgjs" version="1.1" width="512" height="512" x="0" y="0" viewBox="0 0 24 24" style="enable-background:new 0 0 512 512" xml:space="preserve" class=""><circle r="12" cx="12" cy="12" fill="#ffffff" shape="circle"/><g transform="matrix(0.8400000000000001,0,0,0.8400000000000001,1.92,2.240000000000002)"><path xmlns="http://www.w3.org/2000/svg" d="m22.25 20h-20.5c-.965 0-1.75-.785-1.75-1.75v-12.5c0-.965.785-1.75 1.75-1.75h20.5c.965 0 1.75.785 1.75 1.75v12.5c0 .965-.785 1.75-1.75 1.75zm-20.5-14.5c-.138 0-.25.112-.25.25v12.5c0 .138.112.25.25.25h20.5c.138 0 .25-.112.25-.25v-12.5c0-.138-.112-.25-.25-.25z" fill="#b6a0e2" data-original="#000000" style="" class=""/><path xmlns="http://www.w3.org/2000/svg" d="m16.25 24h-8.5c-.414 0-.75-.336-.75-.75s.336-.75.75-.75h8.5c.414 0 .75.336.75.75s-.336.75-.75.75z" fill="#b6a0e2" data-original="#000000" style="" class=""/><path xmlns="http://www.w3.org/2000/svg" d="m12 24c-.414 0-.75-.336-.75-.75v-4c0-.414.336-.75.75-.75s.75.336.75.75v4c0 .414-.336.75-.75.75z" fill="#b6a0e2" data-original="#000000" style="" class=""/><path xmlns="http://www.w3.org/2000/svg" d="m15.25 14.5c-.173 0-.346-.059-.488-.181-.314-.27-.351-.743-.081-1.058l1.081-1.261-1.082-1.262c-.27-.314-.233-.788.081-1.058.315-.27.788-.233 1.058.081l1.5 1.75c.241.281.241.695 0 .977l-1.5 1.75c-.148.173-.358.262-.569.262z" fill="#b6a0e2" data-original="#000000" style="" class=""/><path xmlns="http://www.w3.org/2000/svg" d="m8.75 14.5c-.211 0-.421-.089-.57-.262l-1.5-1.75c-.241-.281-.241-.695 0-.977l1.5-1.75c.27-.313.743-.351 1.058-.08.314.27.351.743.081 1.058l-1.081 1.261 1.082 1.262c.27.314.233.788-.081 1.058-.142.12-.316.18-.489.18z" fill="#b6a0e2" data-original="#000000" style="" class=""/><path xmlns="http://www.w3.org/2000/svg" d="m11.25 16c-.056 0-.112-.006-.169-.019-.404-.093-.655-.496-.563-.899l1.5-6.5c.093-.403.495-.654.899-.563.404.093.655.496.563.899l-1.5 6.5c-.079.348-.388.582-.73.582z" fill="#b6a0e2" data-original="#000000" style="" class=""/></g></svg>
