<?xml version="1.0" encoding="UTF-8"?>
<svg xmlns="http://www.w3.org/2000/svg" xmlns:xlink="http://www.w3.org/1999/xlink" xmlns:svgjs="http://svgjs.com/svgjs" version="1.1" width="512" height="512" x="0" y="0" viewBox="0 0 512 512" style="enable-background:new 0 0 512 512" xml:space="preserve" class="">
  <circle r="256" cx="256" cy="256" fill="#ffffff" shape="circle"/>
  <g transform="matrix(0.77,0,0,0.77,58.879999999999995,53.704999999999984)">
    <path xmlns="http://www.w3.org/2000/svg" d="m362 135c-8.269531 0-15 6.730469-15 15s6.730469 15 15 15 15-6.730469 15-15-6.730469-15-15-15zm0 0" fill="#b6a0e2" data-original="#000000" style=""/>
    <path xmlns="http://www.w3.org/2000/svg" d="m512 165v-30h-30.9375c-1.382812-11.046875-4.273438-21.628906-8.457031-31.539062l26.796875-15.46875-15-25.980469-26.839844 15.496093c-6.613281-8.691406-14.378906-16.457031-23.070312-23.066406l15.496093-26.84375-25.976562-15-15.472657 26.796875c-9.910156-4.183593-20.492187-7.074219-31.539062-8.457031v-30.9375h-30v30.9375c-11.046875 1.382812-21.628906 4.273438-31.535156 8.457031l-15.476563-26.796875-25.976562 15 15.496093 26.839844c-8.691406 6.613281-16.457031 14.378906-23.070312 23.070312l-26.839844-15.496093-15 25.976562 26.796875 15.472657c-4.183593 9.910156-7.074219 20.492187-8.457031 31.539062h-30.9375v30h30.9375c1.382812 11.046875 4.273438 21.628906 8.457031 31.535156l-26.796875 15.472656 15 25.980469 26.839844-15.5c6.613281 8.695313 14.378906 16.460938 23.070312 23.070313l-15.496093 26.84375 25.976562 15 15.472657-26.800782c9.910156 4.1875 20.492187 7.074219 31.539062 8.460938v30.9375h30v-30.9375c11.046875-1.382812 21.628906-4.273438 31.535156-8.457031l15.472656 26.796875 25.980469-15-15.5-26.839844c8.695313-6.613281 16.460938-14.378906 23.070313-23.070312l26.84375 15.5 15-25.980469-26.796875-15.472657c4.183593-9.90625 7.074219-20.492187 8.457031-31.535156h30.9375zm-150 30c-24.8125 0-45-20.1875-45-45s20.1875-45 45-45 45 20.1875 45 45-20.1875 45-45 45zm0 0" fill="#b6a0e2" data-original="#000000" style=""/>
    <path xmlns="http://www.w3.org/2000/svg" d="m247.800781 342.46875 37.335938-29.730469c-47.726563-22.632812-83.984375-65.644531-97.441407-117.738281h-168.6875l185.191407 147.46875c12.835937 10.21875 30.765625 10.21875 43.601562 0zm0 0" fill="#b6a0e2" data-original="#000000" style=""/>
    <path xmlns="http://www.w3.org/2000/svg" d="m0 218.214844v225.585937l141.632812-112.800781zm0 0" fill="#b6a0e2" data-original="#000000" style=""/>
    <path xmlns="http://www.w3.org/2000/svg" d="m318.355469 324.640625-7.988281 6.359375 141.632812 112.726562v-137.890624c-26.492188 15.359374-57.234375 24.164062-90 24.164062-15.046875 0-29.664062-1.867188-43.644531-5.359375zm0 0" fill="#b6a0e2" data-original="#000000" style=""/>
    <path xmlns="http://www.w3.org/2000/svg" d="m266.488281 365.9375c-11.921875 9.492188-26.203125 14.234375-40.488281 14.234375s-28.566406-4.742187-40.488281-14.234375l-19.796875-15.761719-146.6875 116.824219h414.042968l-146.785156-116.824219zm0 0" fill="#b6a0e2" data-original="#000000" style=""/>
  </g>
</svg>
