<?xml version="1.0"?>
<svg xmlns="http://www.w3.org/2000/svg" xmlns:xlink="http://www.w3.org/1999/xlink" xmlns:svgjs="http://svgjs.com/svgjs" version="1.1" width="512" height="512" x="0" y="0" viewBox="0 0 512.005 512.005" style="enable-background:new 0 0 512 512" xml:space="preserve" class=""><circle r="256.0025" cx="256.0025" cy="256.0025" fill="#ffffff" shape="circle"/><g transform="matrix(0.77,0,0,0.7699999999999999,58.88091730117799,58.8803699803353)">
<g xmlns="http://www.w3.org/2000/svg">
	<g>
		<g>
			<path d="M373.336,277.339c-64.698,0-117.333,52.635-117.333,117.333s52.635,117.333,117.333,117.333     s117.333-52.635,117.333-117.333S438.034,277.339,373.336,277.339z M412.878,419.13c4.167,4.167,4.167,10.917,0,15.083     c-2.083,2.083-4.813,3.125-7.542,3.125c-2.729,0-5.458-1.042-7.542-3.125l-24.458-24.458l-24.458,24.458     c-2.083,2.083-4.813,3.125-7.542,3.125c-2.729,0-5.458-1.042-7.542-3.125c-4.167-4.167-4.167-10.917,0-15.083l24.458-24.458     l-24.458-24.458c-4.167-4.167-4.167-10.917,0-15.083c4.167-4.167,10.917-4.167,15.083,0l24.458,24.458l24.458-24.458     c4.167-4.167,10.917-4.167,15.083,0c4.167,4.167,4.167,10.917,0,15.083l-24.458,24.458L412.878,419.13z" fill="#b6a0e2" data-original="#000000" style="" class=""/>
			<path d="M250.096,457.88c-1.323-2.573-3.635-4.49-6.396-5.323c-2.771-0.854-5.771-0.51-8.281,0.896     c-5.51,3.073-11.135,6.167-17.094,9.313c-3.281,1.729-7.385,1.594-10.49-0.292c-3.188-1.917-5.167-5.417-5.167-9.135v-176     c0-5.896-4.771-10.667-10.667-10.667H75.701c-5.719,0-10.396-4.469-10.656-10.177c-0.74-16.292-1.042-34-1.042-53.823v-97.813     c0-4.51,2.865-8.552,7.115-10.052l138.688-48.948c3.188-1.135,6.906-0.625,9.688,1.354c2.823,2,4.51,5.25,4.51,8.708v178.75     c0,5.896,4.771,10.667,10.667,10.667h116.302c2.906,0,5.708,1.198,7.479,3.021l1.385,2.51c1.969,3.417,5.833,5.552,9.563,5.354     c0.146-0.01,3.792-0.208,3.938-0.219c6.479,0,12.802,0.615,19.042,1.469c2.969,0.417,6.01-0.458,8.313-2.396     c2.313-1.938,3.688-4.76,3.802-7.771c0.531-14.031,0.844-28.677,0.844-44.635v-128c0-4.521-2.854-8.552-7.115-10.063l-181.333-64     c-2.292-0.813-4.813-0.813-7.104,0l-181.333,64c-4.26,1.51-7.115,5.542-7.115,10.063v128     c0,165.646,24.563,226.188,187.198,308.188c1.51,0.76,3.156,1.146,4.802,1.146c1.646,0,3.292-0.385,4.802-1.146     c14.021-7.063,26.646-13.906,38.646-20.677c2.635-1.49,4.51-4.021,5.167-6.969c0.667-2.948,0.042-6.031-1.708-8.5     C256.648,469.651,253.326,464.141,250.096,457.88z" fill="#b6a0e2" data-original="#000000" style="" class=""/>
		</g>
	</g>
</g>
<g xmlns="http://www.w3.org/2000/svg">
</g>
<g xmlns="http://www.w3.org/2000/svg">
</g>
<g xmlns="http://www.w3.org/2000/svg">
</g>
<g xmlns="http://www.w3.org/2000/svg">
</g>
<g xmlns="http://www.w3.org/2000/svg">
</g>
<g xmlns="http://www.w3.org/2000/svg">
</g>
<g xmlns="http://www.w3.org/2000/svg">
</g>
<g xmlns="http://www.w3.org/2000/svg">
</g>
<g xmlns="http://www.w3.org/2000/svg">
</g>
<g xmlns="http://www.w3.org/2000/svg">
</g>
<g xmlns="http://www.w3.org/2000/svg">
</g>
<g xmlns="http://www.w3.org/2000/svg">
</g>
<g xmlns="http://www.w3.org/2000/svg">
</g>
<g xmlns="http://www.w3.org/2000/svg">
</g>
<g xmlns="http://www.w3.org/2000/svg">
</g>
</g></svg>
