<?xml version="1.0" encoding="UTF-8"?>
<svg xmlns="http://www.w3.org/2000/svg" xmlns:xlink="http://www.w3.org/1999/xlink" xmlns:svgjs="http://svgjs.com/svgjs" version="1.1" width="512" height="512" x="0" y="0" viewBox="0 0 512 512" style="enable-background:new 0 0 512 512" xml:space="preserve" class="">
  <circle r="256" cx="256" cy="256" fill="#ffffff" shape="circle"/>
  <g transform="matrix(0.7500000000000001,0,0,0.7500000000000001,63.99999999999997,64.00000190734866)">
<g xmlns="http://www.w3.org/2000/svg">
	<g>
		<path d="M0,55.781v347.105h135.808v53.333h240.385v-53.333H512V55.781H0z M456.258,85.781L256,242.019l-31.1-24.264    c8.751-6.338,19.493-10.088,31.1-10.088v-30c-21.241,0-40.638,8.016-55.351,21.168L55.742,85.781H456.258z M309.153,260.82v51.559    H202.847V260.82c0-6.83,1.309-13.356,3.667-19.36L256,280.069l49.487-38.609C307.882,247.588,309.153,254.153,309.153,260.82z     M135.808,372.886H30V103.747l152.232,118.769c-5.982,11.473-9.385,24.495-9.385,38.304v51.559h-37.039V372.886z M346.192,426.219    H165.808v-83.84H241v41.266h30v-41.266h75.192V426.219z M482,372.886H376.192v-60.507h-37.039V260.82    c0-13.404-3.261-26.558-9.363-38.321L482,103.747V372.886z" fill="#b6a0e2" data-original="#000000" style="" class=""/>
	</g>
</g>















</g>
</svg>
