<?xml version="1.0"?>
<svg xmlns="http://www.w3.org/2000/svg" xmlns:xlink="http://www.w3.org/1999/xlink" xmlns:svgjs="http://svgjs.com/svgjs" version="1.1" width="512" height="512" x="0" y="0" viewBox="0 0 24 24" style="enable-background:new 0 0 512 512" xml:space="preserve" class=""><circle r="12" cx="12" cy="12" fill="#ffffff" shape="circle"/><g transform="matrix(0.71,0,0,0.71,3.480000276565553,3.480000276565553)"><g xmlns="http://www.w3.org/2000/svg" id="XMLID_1_"><path d="m23.3 15.36c-.03-.03-.07-.06-.11-.08.04.02.08.04.11.08z" fill="#b6a0e2" data-original="#000000" style="" class=""/><path d="m22.5 16.75c0-.14-.11-.25-.25-.25h-1.8l1.94-1.22c.22-.14.49-.15.71-.05.03.01.06.03.09.05.04.02.08.05.11.08.05.05.09.1.13.15.22.35.11.81-.24 1.03l-.69.44z" fill="#b6a0e2" data-original="#000000" style="" class=""/><path d="m17.25 7.5c.41 0 .75.34.75.75s-.34.75-.75.75h-.75v-1.5z" fill="#b6a0e2" data-original="#000000" style="" class=""/><path d="m17.25 9c.41 0 .75-.34.75-.75v4c0 .41-.34.75-.75.75s-.75-.34-.75-.75v-3.25z" fill="#b6a0e2" data-original="#000000" style="" class=""/><path d="m1.5 7.5h15v1.5h-15z" fill="#b6a0e2" data-original="#000000" style="" class=""/><circle cx="13" cy="5" r="1" fill="#b6a0e2" data-original="#000000" style="" class=""/><path d="m22.25 16.5c.14 0 .25.11.25.25v.23l-4.6 2.9c-.12.08-.26.12-.4.12s-.28-.04-.4-.12l-4.6-2.9v-.23c0-.14.11-.25.25-.25h1.8l2.95 1.86 2.95-1.86z" fill="#b6a0e2" data-original="#000000" style="" class=""/><path d="m11.9 15.23c.25-.15.54-.23.85-.23h4.5 5c.31 0 .6.08.85.23-.22-.1-.49-.09-.71.05l-1.94 1.22h-5.9l-1.94-1.22c-.22-.14-.49-.15-.71-.05z" fill="#b6a0e2" data-original="#000000" style="" class=""/><path d="m11.81 16.54c-.35-.22-.45-.68-.23-1.03.04-.05.08-.1.12-.15.04-.03.07-.06.11-.08.03-.02.06-.04.09-.05.22-.1.49-.09.71.05l1.94 1.22h-1.8c-.14 0-.25.11-.25.25v.23z" fill="#b6a0e2" data-original="#000000" style="" class=""/><path d="m11.81 15.28c-.04.02-.07.05-.11.08.03-.04.07-.06.11-.08z" fill="#b6a0e2" data-original="#000000" style="" class=""/><path d="m11.58 15.51c-.22.35-.12.81.23 1.03l.69.44v5.27c0 .14.11.25.25.25h9.5c.14 0 .25-.11.25-.25v-5.27l.69-.44c.35-.22.46-.68.24-1.03-.04-.05-.08-.1-.13-.15.43.31.7.82.7 1.39v5.5c0 .97-.78 1.75-1.75 1.75h-9.5c-.73 0-1.35-.44-1.61-1.07-.09-.21-.14-.44-.14-.68v-5.5c0-.57.27-1.08.7-1.39-.04.05-.08.1-.12.15z" fill="#b6a0e2" data-original="#000000" style="" class=""/><circle cx="9" cy="5" r="1" fill="#b6a0e2" data-original="#000000" style="" class=""/><path d="m8.25 15c.41 0 .75.34.75.75s-.34.75-.75.75h-6.75v-1.5z" fill="#b6a0e2" data-original="#000000" style="" class=""/><circle cx="5" cy="5" r="1" fill="#b6a0e2" data-original="#000000" style="" class=""/><path d="m1.5 15v1.5h-.25c-.41 0-.75-.34-.75-.75s.34-.75.75-.75z" fill="#b6a0e2" data-original="#000000" style="" class=""/><path d="m1.5 7.5v1.5h-.75c-.41 0-.75-.34-.75-.75s.34-.75.75-.75z" fill="#b6a0e2" data-original="#000000" style="" class=""/><path d="m0 2.75c0-1.52 1.23-2.75 2.75-2.75h12.5c1.52 0 2.75 1.23 2.75 2.75v5.5c0-.41-.34-.75-.75-.75h-.75v-4.75c0-.69-.56-1.25-1.25-1.25h-12.5c-.69 0-1.25.56-1.25 1.25v4.75h-.75c-.41 0-.75.34-.75.75z" fill="#b6a0e2" data-original="#000000" style="" class=""/><path d="m2.75 24c-1.52 0-2.75-1.23-2.75-2.75v-13c0 .41.34.75.75.75h.75v6h-.25c-.41 0-.75.34-.75.75s.34.75.75.75h.25v4.75c0 .69.56 1.25 1.25 1.25h5.5c.31 0 .58.19.69.46.04.09.06.19.06.29 0 .41-.34.75-.75.75z" fill="#b6a0e2" data-original="#000000" style="" class=""/></g></g></svg>
