<?xml version="1.0"?>
<svg xmlns="http://www.w3.org/2000/svg" xmlns:xlink="http://www.w3.org/1999/xlink" xmlns:svgjs="http://svgjs.com/svgjs" version="1.1" width="512" height="512" x="0" y="0" viewBox="0 0 466.00002 466" style="enable-background:new 0 0 512 512" xml:space="preserve" class=""><circle r="233.00001" cx="233.00001" cy="233" fill="#ffffff" shape="circle"/><g transform="matrix(0.7999999999999999,0,0,0.7999999999999999,46.59999644908743,57.30000305175784)"><path xmlns="http://www.w3.org/2000/svg" d="m390.5 82.671875c11.320312 0 20.5-9.175781 20.5-20.5 0-11.320313-9.179688-20.5-20.5-20.5s-20.5 9.179687-20.5 20.5c.011719 11.320313 9.183594 20.492187 20.5 20.5zm0 0" fill="#b6a0e2" data-original="#000000" style="" class=""/><path xmlns="http://www.w3.org/2000/svg" d="m315.726562 109.714844c1.816407 11.171875-5.773437 21.699218-16.945312 23.515625-11.175781 1.8125-21.703125-5.777344-23.515625-16.949219s5.773437-21.703125 16.949219-23.515625c11.171875-1.8125 21.699218 5.777344 23.511718 16.949219zm0 0" fill="#b6a0e2" data-original="#000000" style="" class=""/><path xmlns="http://www.w3.org/2000/svg" d="m200.859375 286.949219c-16.011719 13.65625-39.574219 13.667969-55.597656.023437l-145.261719-123v176.027344c-.0078125 5.503906 1.371094 10.925781 4.011719 15.757812l83.628906-85.535156c1.742187-1.816406 4.324219-2.554687 6.761719-1.9375 2.4375.617188 4.359375 2.492188 5.03125 4.917969s-.011719 5.023437-1.785156 6.804687l-84.449219 86.375c5.707031 4.300782 12.65625 6.625 19.800781 6.617188h280c7.125.007812 14.058594-2.304688 19.757812-6.585938l-84.914062-86.394531c-2.65625-2.765625-2.59375-7.152343.140625-9.839843 2.734375-2.691407 7.125-2.675782 9.84375.027343l84.132813 85.601563c2.65625-4.84375 4.046874-10.28125 4.039062-15.808594v-100.1875c-22.957031-1.167969-45.148438-8.621094-64.152344-21.546875zm0 0" fill="#b6a0e2" data-original="#000000" style="" class=""/><path xmlns="http://www.w3.org/2000/svg" d="m191.804688 276.269531 78.667968-66.714843c-3.425781-2.941407-6.691406-6.058594-9.792968-9.339844-20.757813-21.898438-32.996094-50.503906-34.507813-80.640625h-193.171875c-15.746094.019531-29.289062 11.144531-32.371094 26.585937l153.679688 130.125c10.808594 9.203125 26.695312 9.195313 37.496094-.015625zm0 0" fill="#b6a0e2" data-original="#000000" style="" class=""/><path xmlns="http://www.w3.org/2000/svg" d="m353 0c-45.121094 0-85.917969 26.839844-103.777344 68.277344-17.855468 41.433594-9.351562 89.523437 21.632813 122.324218 4.414062 4.671876 9.214843 8.96875 14.34375 12.839844.332031.210938.644531.445313.933593.707032 19.359376 14.285156 42.808594 21.949218 66.867188 21.851562 62.40625 0 113-50.59375 113-113s-50.59375-113-113-113zm-23.007812 113c.003906 4.230469-.777344 8.421875-2.300782 12.371094l35.679688 17.195312c10.878906-13.808594 30.4375-17.148437 45.289062-7.742187 14.847656 9.410156 20.179688 28.519531 12.34375 44.257812-7.835937 15.734375-26.296875 23-42.753906 16.820313-16.457031-6.179688-25.578125-23.800782-21.121094-40.804688l-37.097656-17.878906c-10.050781 10.195312-25.355469 13.125-38.460938 7.359375-13.105468-5.761719-21.289062-19.023437-20.566406-33.324219.726563-14.296875 10.203125-26.664062 23.824219-31.074218 13.621094-4.414063 28.550781.046874 37.523437 11.203124l35.4375-18.277343c-5.636718-16.804688 2.351563-35.148438 18.492188-42.472657 16.140625-7.320312 35.203125-1.246093 44.132812 14.066407 8.925782 15.3125 4.828126 34.894531-9.492187 45.335937-14.324219 10.445313-34.222656 8.359375-46.070313-4.820312l-36.105468 18.625c.828125 2.980468 1.246094 6.0625 1.246094 9.160156zm0 0" fill="#b6a0e2" data-original="#000000" style="" class=""/><path xmlns="http://www.w3.org/2000/svg" d="m390.5 184.324219c11.320312 0 20.5-9.179688 20.5-20.5 0-11.324219-9.179688-20.5-20.5-20.5s-20.5 9.175781-20.5 20.5c.011719 11.316406 9.183594 20.488281 20.5 20.5zm0 0" fill="#b6a0e2" data-original="#000000" style="" class=""/></g></svg>
