<?xml version="1.0"?>
<svg xmlns="http://www.w3.org/2000/svg" xmlns:xlink="http://www.w3.org/1999/xlink" xmlns:svgjs="http://svgjs.com/svgjs" version="1.1" width="512" height="512" x="0" y="0" viewBox="0 0 24 24" style="enable-background:new 0 0 512 512" xml:space="preserve" class=""><circle r="12" cx="12" cy="12" fill="#ffffff" shape="circle"/><g transform="matrix(0.73,0,0,0.73,3.2400000000000055,3.240000000000002)"><path xmlns="http://www.w3.org/2000/svg" d="m17.5 24c-3.584 0-6.5-2.916-6.5-6.5s2.916-6.5 6.5-6.5 6.5 2.916 6.5 6.5-2.916 6.5-6.5 6.5zm0-11.5c-2.757 0-5 2.243-5 5s2.243 5 5 5 5-2.243 5-5-2.243-5-5-5z" fill="#b6a0e2" data-original="#000000" style="" class=""/><path xmlns="http://www.w3.org/2000/svg" d="m17.5 20.009c-.414 0-.75-.336-.75-.75 0-.968.484-1.894 1.327-2.542.265-.203.423-.534.423-.884 0-.598-.449-1.083-1-1.083s-1 .486-1 1.083c0 .414-.336.75-.75.75s-.75-.335-.75-.75c0-1.424 1.122-2.583 2.5-2.583s2.5 1.159 2.5 2.583c0 .813-.377 1.589-1.009 2.074-.277.212-.741.67-.741 1.352 0 .414-.336.75-.75.75z" fill="#b6a0e2" data-original="#000000" style="" class=""/><circle xmlns="http://www.w3.org/2000/svg" cx="17.5" cy="21.25" r=".75" fill="#b6a0e2" data-original="#000000" style="" class=""/><path xmlns="http://www.w3.org/2000/svg" d="m7 5c-.716 0-7-.07-7-2.5s6.284-2.5 7-2.5 7 .07 7 2.5-6.284 2.5-7 2.5zm-5.436-2.5c.471.401 2.447 1 5.436 1s4.965-.599 5.436-1c-.471-.401-2.447-1-5.436-1s-4.965.599-5.436 1zm10.957.094h.01z" fill="#b6a0e2" data-original="#000000" style="" class=""/><path xmlns="http://www.w3.org/2000/svg" d="m7 9c-.716 0-7-.07-7-2.5 0-.414.336-.75.75-.75s.75.336.75.75c.218.299 2.268 1 5.5 1s5.282-.701 5.521-1.094c0-.415.325-.703.74-.703.413 0 .739.383.739.797 0 2.43-6.284 2.5-7 2.5z" fill="#b6a0e2" data-original="#000000" style="" class=""/><path xmlns="http://www.w3.org/2000/svg" d="m7 13c-.716 0-7-.07-7-2.5 0-.414.336-.75.75-.75.391 0 .713.3.747.682.305.396 2.334 1.068 5.503 1.068 1.032 0 2.047-.073 2.935-.211.409-.059.793.216.856.626.063.409-.216.792-.626.856-.962.15-2.057.229-3.165.229zm-5.5-2.5h.01z" fill="#b6a0e2" data-original="#000000" style="" class=""/><path xmlns="http://www.w3.org/2000/svg" d="m13.25 10c-.414 0-.75-.336-.75-.75v-6.75c0-.414.336-.75.75-.75s.75.336.75.75v6.75c0 .414-.336.75-.75.75z" fill="#b6a0e2" data-original="#000000" style="" class=""/><path xmlns="http://www.w3.org/2000/svg" d="m7 17c-.716 0-7-.07-7-2.5v-12c0-.414.336-.75.75-.75s.75.336.75.75v12c.217.3 2.265 1 5.5 1 .442 0 .875-.009 1.287-.038.404-.037.771.282.801.695s-.282.772-.695.801c-.447.032-.915.042-1.393.042z" fill="#b6a0e2" data-original="#000000" style="" class=""/></g></svg>
