<?xml version="1.0"?>
<svg xmlns="http://www.w3.org/2000/svg" xmlns:xlink="http://www.w3.org/1999/xlink" xmlns:svgjs="http://svgjs.com/svgjs" version="1.1" width="512" height="512" x="0" y="0" viewBox="0 0 512 512" style="enable-background:new 0 0 512 512" xml:space="preserve" class=""><circle r="256" cx="256" cy="256" fill="#ffffff" shape="circle"/><g transform="matrix(0.8200000000000001,0,0,0.8200000000000001,46.08081024169931,46.079999999999984)"><g xmlns="http://www.w3.org/2000/svg" id="Solid"><path d="M104,360h16v16H104Zm64,16h16V360H168Zm64,0h16V360H232Zm128,0h16V360H360Zm-64,0h16V360H296Zm184-56,.009,88H32V320ZM72,360H56v16H72Zm64-8a8,8,0,0,0-8-8h-8v-8H104v8H96a8,8,0,0,0-8,8v32a8,8,0,0,0,8,8h32a8,8,0,0,0,8-8Zm64,0a8,8,0,0,0-8-8h-8v-8H168v8h-8a8,8,0,0,0-8,8v32a8,8,0,0,0,8,8h32a8,8,0,0,0,8-8Zm64,0a8,8,0,0,0-8-8h-8v-8H232v8h-8a8,8,0,0,0-8,8v32a8,8,0,0,0,8,8h32a8,8,0,0,0,8-8Zm64,0a8,8,0,0,0-8-8h-8v-8H296v8h-8a8,8,0,0,0-8,8v32a8,8,0,0,0,8,8h32a8,8,0,0,0,8-8Zm64,0a8,8,0,0,0-8-8h-8v-8H360v8h-8a8,8,0,0,0-8,8v32a8,8,0,0,0,8,8h32a8,8,0,0,0,8-8Zm64,0a8,8,0,0,0-8-8h-8v-8H424v8h-8a8,8,0,0,0-8,8v32a8,8,0,0,0,8,8h32a8,8,0,0,0,8-8Zm24.007-48H32V104H480ZM64,152H48v80H64Zm0-32H48v16H64ZM424,376h16V360H424Z" fill="#b6a0e2" data-original="#000000" style="" class=""/></g></g></svg>
