<?xml version="1.0"?>
<svg xmlns="http://www.w3.org/2000/svg" xmlns:xlink="http://www.w3.org/1999/xlink" xmlns:svgjs="http://svgjs.com/svgjs" version="1.1" width="512" height="512" x="0" y="0" viewBox="0 0 128 128" style="enable-background:new 0 0 512 512" xml:space="preserve" class=""><circle r="64" cx="64" cy="64" fill="#ffffff" shape="circle"/><g transform="matrix(1,0,0,1,4.973799150320701e-14,1.4210854715202004e-14)"><g xmlns="http://www.w3.org/2000/svg"><path d="m106.1 83.3c-3.6 0-6.8 2.5-7.6 6h-26.9c-.7-2.9-2.9-5.1-5.8-5.8v-10.7h24.2c1 0 1.7-.8 1.8-1.7v-5.9h9.1c1 0 1.8-.8 1.8-1.8v-32.5c0-1-.8-1.8-1.8-1.8h-73.7c-1 0-1.8.8-1.8 1.8v32.4c0 1 .8 1.8 1.8 1.8h9.1v5.9c0 1 .8 1.7 1.7 1.8h24.3v10.7c-2.9.7-5.1 2.9-5.8 5.8h-27c-1-4.2-5.1-6.8-9.3-5.8s-6.8 5.1-5.8 9.3 5.1 6.8 9.3 5.8c2.9-.7 5.2-2.9 5.8-5.8h26.9c1 4.2 5.1 6.8 9.3 5.8 2.9-.7 5.2-2.9 5.8-5.8h26.9c1 4.2 5.1 6.8 9.3 5.8s6.8-5.1 5.8-9.3c-.7-3.5-3.8-6-7.4-6zm-77.2-50.6h70.2v28.9h-70.2zm10.9 32.4h48.5v4.2h-48.5zm-17.9 30.2c-2.4 0-4.3-1.9-4.3-4.3s1.9-4.3 4.3-4.3 4.3 1.9 4.3 4.3c0 2.4-1.9 4.3-4.3 4.3zm42.1 0c-2.4 0-4.3-1.9-4.3-4.3s1.9-4.3 4.3-4.3 4.3 1.9 4.3 4.3c0 2.4-1.9 4.3-4.3 4.3zm42.1 0c-2.4 0-4.3-1.9-4.3-4.3s1.9-4.3 4.3-4.3 4.3 1.9 4.3 4.3c-.1 2.4-2 4.3-4.3 4.3z" fill="#b6a0e2" data-original="#000000" style="" class=""/><path d="m51.7 54.7 5.5-15.2h-3.3l-3.7 11.3-3.9-11.3h-3.3l5.4 15.2z" fill="#b6a0e2" data-original="#000000" style="" class=""/><path d="m61.8 49h3.8c2.5 0 4.8-1.9 4.8-4.8 0-1.5-.9-4.7-5.3-4.7-1.2 0-6.4 0-6.4 0v15.2h3.1zm0-6.9h3.2c1.7 0 2.2 1.2 2.2 2.1 0 1.1-.5 2.2-2.3 2.2h-3.1z" fill="#b6a0e2" data-original="#000000" style="" class=""/><path d="m75.8 44.8 6.1 9.9h3.1v-15.2h-2.8v10.2l-6.3-10.2h-3v15.2h2.9z" fill="#b6a0e2" data-original="#000000" style="" class=""/></g></g></svg>
