<?xml version="1.0"?>
<svg xmlns="http://www.w3.org/2000/svg" xmlns:xlink="http://www.w3.org/1999/xlink" xmlns:svgjs="http://svgjs.com/svgjs" version="1.1" width="512" height="512" x="0" y="0" viewBox="0 0 512 512" style="enable-background:new 0 0 512 512" xml:space="preserve" class=""><circle r="256" cx="256" cy="256" fill="#ffffff" shape="circle"/><g transform="matrix(0.8099999999999999,0,0,0.8099999999999999,13.647276010513337,48.63988820075997)"><g xmlns="http://www.w3.org/2000/svg"><path d="M504,340a20.02,20.02,0,0,0-20-20H424V305.69A216.017,216.017,0,0,0,71.27,71.27,216.047,216.047,0,0,0,298.21,426.9,19.889,19.889,0,0,0,296,436v24a20.02,20.02,0,0,0,20,20h60v16a8,8,0,0,0,8,8h32a8,8,0,0,0,8-8V480h60a20.02,20.02,0,0,0,20-20V436a19.907,19.907,0,0,0-4.04-12A19.907,19.907,0,0,0,504,412V388a19.907,19.907,0,0,0-4.04-12A19.907,19.907,0,0,0,504,364ZM424,224a200.4,200.4,0,0,1-5.79,48H302.1c1.25-15.57,1.9-31.65,1.9-48s-.65-32.43-1.9-48H418.16A199.419,199.419,0,0,1,424,224Zm-10.5-64H300.58c-3.5-31.94-9.64-61.24-18.11-85.69-7.03-20.31-15.4-36.27-24.71-47.45C330.67,39.31,390.25,91.35,413.5,160ZM288,224c0,16.77-.68,32.81-1.94,48H161.94c-1.28-15.53-1.94-31.61-1.94-48,0-16.77.68-32.81,1.94-48H286.06C287.34,191.53,288,207.61,288,224ZM224,24c15.11,0,31.31,20.76,43.35,55.54,7.94,22.93,13.75,50.41,17.15,80.46H163.52C172.91,77.46,199.58,24,224,24Zm-33.76,2.86C180.93,38.04,172.56,54,165.53,74.31c-8.47,24.45-14.61,53.75-18.11,85.69H34.5C57.75,91.35,117.33,39.31,190.24,26.86ZM24,224a199.419,199.419,0,0,1,5.84-48H145.9c-1.25,15.57-1.9,31.65-1.9,48s.65,32.43,1.9,48H29.84A199.419,199.419,0,0,1,24,224Zm10.5,64H147.42c3.5,31.94,9.64,61.24,18.11,85.69,7.03,20.31,15.4,36.27,24.71,47.45C117.33,408.69,57.75,356.65,34.5,288ZM224,424c-15.11,0-31.31-20.76-43.35-55.54-7.94-22.93-13.75-50.41-17.15-80.46H284.48C275.09,370.54,248.42,424,224,424Zm72-84v24a19.907,19.907,0,0,0,4.04,12A19.907,19.907,0,0,0,296,388v22.65a198.1,198.1,0,0,1-38.27,10.52c9.32-11.18,17.71-27.15,24.74-47.48,8.47-24.45,14.61-53.75,18.11-85.69H413.54q-1.365,4.02-2.89,8H384a8,8,0,0,0-8,8v16H316A20.02,20.02,0,0,0,296,340Zm112-28v8H392v-8Zm0,176H392v-8h16Zm80-28a4,4,0,0,1-4,4H316a4,4,0,0,1-4-4V436a4,4,0,0,1,4-4H484a4,4,0,0,1,4,4Zm0-48a4,4,0,0,1-4,4H316a4,4,0,0,1-4-4V388a4,4,0,0,1,4-4H484a4,4,0,0,1,4,4Zm0-48a4,4,0,0,1-4,4H316a4,4,0,0,1-4-4V340a4,4,0,0,1,4-4H484a4,4,0,0,1,4,4Z" fill="#b6a0e2" data-original="#000000" style="" class=""/><circle cx="328" cy="352" r="8" fill="#b6a0e2" data-original="#000000" style="" class=""/><circle cx="352" cy="352" r="8" fill="#b6a0e2" data-original="#000000" style="" class=""/><circle cx="376" cy="352" r="8" fill="#b6a0e2" data-original="#000000" style="" class=""/><path d="M424,360h48a8,8,0,0,0,0-16H424a8,8,0,0,0,0,16Z" fill="#b6a0e2" data-original="#000000" style="" class=""/><circle cx="328" cy="400" r="8" fill="#b6a0e2" data-original="#000000" style="" class=""/><circle cx="352" cy="400" r="8" fill="#b6a0e2" data-original="#000000" style="" class=""/><circle cx="376" cy="400" r="8" fill="#b6a0e2" data-original="#000000" style="" class=""/><path d="M424,408h48a8,8,0,0,0,0-16H424a8,8,0,0,0,0,16Z" fill="#b6a0e2" data-original="#000000" style="" class=""/><circle cx="328" cy="448" r="8" fill="#b6a0e2" data-original="#000000" style="" class=""/><circle cx="352" cy="448" r="8" fill="#b6a0e2" data-original="#000000" style="" class=""/><circle cx="376" cy="448" r="8" fill="#b6a0e2" data-original="#000000" style="" class=""/><path d="M472,440H424a8,8,0,0,0,0,16h48a8,8,0,0,0,0-16Z" fill="#b6a0e2" data-original="#000000" style="" class=""/></g></g></svg>
